<svg xmlns="http://www.w3.org/2000/svg" viewBox="0 0 24 24" width="48" height="48">
  <!-- Body of the tomato -->
  <path d="M12 21.5c-4.5 0-8-3.5-8-7.5 0-3 1.5-5.5 4-6.5C9.5 7 10.5 7 12 7s2.5 0 4 .5c2.5 1 4 3.5 4 6.5 0 4-3.5 7.5-8 7.5z" fill="#E53935"/>
  <!-- Highlight to give it a 3D feel -->
  <path d="M7.5 12c-.5-1.5-.5-3 1.5-4C8 8.5 7.5 10 7.5 12z" fill="#EF5350"/>
  <!-- Stem and leaves -->
  <path d="M12 2.5c-.5 0-1 .5-1 1v2c-1.5 0-3 .5-3.5 1.5.5.5 2 0 3.5.5.5 1.5.5 2 1.5 2s1-.5 1.5-2c1.5-.5 3 0 3.5-.5C14 6 12.5 5.5 11 5.5v-2c0-.5-.5-1-1-1z" fill="#43A047"/>
</svg>