<svg width="124" height="123" viewBox="0 0 124 123" fill="none" xmlns="http://www.w3.org/2000/svg">
<path fill-rule="evenodd" clip-rule="evenodd" d="M61.24 2.04999C63.23 10.81 65.16 18.92 66.8 23.37C71.7 23.13 74.88 21.81 78.2 20.59C82.29 19.09 85.72 17.15 88.71 14.91C90.99 13.42 92.27 14.1 92.09 17.96C91.4 21.55 89.55 24.3 86.73 26.36C91.48 26.17 95.85 26.64 99.81 27.82C105.95 29.66 111.06 33.19 114.97 38.63C116.19 40.32 117.28 42.19 118.25 44.23C119.21 46.25 120.05 48.47 120.76 50.88L120.78 50.93C123.47 61.01 123.78 70.4 122.02 78.85C120.18 87.73 116.07 95.55 110.1 102C106.02 106.41 101.12 110.22 95.36 113.28C89.91 116.18 83.66 118.42 76.59 119.86C67.25 121.76 58.81 122.27 51.18 121.58C43.49 120.88 36.61 118.97 30.47 116.02C20.44 111.21 12.41 102.49 7.15999 92.26C1.70999 81.61 -0.770008 69.28 0.629992 58.01C1.19999 53.43 2.48999 49.08 4.55999 45.09C6.52999 41.31 9.20999 37.85 12.67 34.82C17.42 29.87 25.52 26.86 36.7 25.64L28.53 22.32C27.08 21.38 27.72 20.82 30.06 20.58C40.55 20.18 49.75 20.67 56.66 22.76C56.55 16.91 54.08 11.06 51.21 5.20999L58.73 0.299988L61.24 2.04999ZM15.47 69.38C15.24 68.22 16 67.09 17.17 66.86C18.33 66.63 19.46 67.39 19.69 68.56C21 75.21 23 80.64 25.56 85.06C28.09 89.43 31.18 92.83 34.7 95.5C35.65 96.21 35.83 97.56 35.12 98.51C34.41 99.46 33.06 99.64 32.11 98.93C28.15 95.93 24.68 92.11 21.85 87.22C19.04 82.38 16.87 76.52 15.47 69.38ZM83.23 31.1C89.62 32.98 94.28 36.87 95.91 44.23C96.03 47.94 95.51 49.41 93.95 47.28C85.76 40.78 78.04 37.56 71.06 39.32C73.41 44.93 78.08 49.32 83.16 53.49C74.02 53.62 65.91 49.54 58.52 42.48C50.27 46.53 38.25 45.42 33.71 51.74C31.06 54.99 30.55 53.34 31.26 48.91C33.19 41.85 36.48 37.29 41.29 35.5C33.39 35.8 28.17 34.72 25.19 32.5C21.15 33.85 18.02 35.66 15.85 37.95C15.8 38 15.75 38.05 15.69 38.1C12.65 40.75 10.28 43.79 8.53999 47.14C6.70999 50.65 5.57999 54.49 5.07999 58.54C3.78999 68.95 6.07999 80.35 11.15 90.22C15.98 99.63 23.3 107.63 32.41 111.99C38.08 114.71 44.45 116.48 51.6 117.13C58.81 117.78 66.82 117.29 75.72 115.48C82.33 114.13 88.17 112.04 93.28 109.32C98.61 106.48 103.12 102.98 106.85 98.96C112.27 93.11 116 86.01 117.67 77.94C119.28 70.16 118.99 61.46 116.48 52.07C115.84 49.92 115.08 47.94 114.23 46.12C113.37 44.31 112.42 42.68 111.37 41.22C108.06 36.62 103.74 33.64 98.55 32.09C94.08 30.77 88.94 30.48 83.23 31.1Z" fill="#EA4335" stroke="#EA4335" stroke-width="0.5" stroke-miterlimit="2.6131"/>
</svg>
